# xmcd
#
# Track frame offsets: 
#        150
#        5753
#        18136
#        29458
#        43382
#        56959
#        70410
#        82224
#        97545
#        110900
#        124596
#        136850
#        148132
#        159181
#        172492
#        186040
#        199076
#        212690
#        226289
#        239884
#        253657
#        273530
#
# Disc length: 3824 seconds
#
# Revision: 0
# Processed by: cddbd v1.5.2PL0 Copyright (c) Steve Scherf et al.
# Submitted via: ExactAudioCopy v1.1
#
DISCID=4f0eee16
DTITLE=Various Artist - 60 Jaar Eurovisie Songfestival - CD 1
DYEAR=2015
DGENRE=Eurovision
TTITLE0=Eurovision Song Contest Theme - Charpentier Te Deum
TTITLE1=Abba - Waterloo
TTITLE2=Cliff Richard - Congratulations
TTITLE3=Céline Dion - Ne Partez Pas Sans Moi
TTITLE4=Ruslana - Wild Dances
TTITLE5=Loreen - Euphoria
TTITLE6=Bucks Fizz - Making Your Mind Up
TTITLE7=Milk And Honey - Hallelujah
TTITLE8=Izhar Cohen and The Alpha - Beta - A-Ba-Ni-Bi
TTITLE9=Brotherhood Of Man - Save Your Kisses For Me
TTITLE10=Conny Froboess - Zwei Kleine Italiener
TTITLE11=France Gall - Poupée De Cire, Poupée De Son
TTITLE12=Catherine Ferry - 1, 2, 3
TTITLE13=Mouth and MacNeal - Ik Zie Een Ster
TTITLE14=Frizzle Sizzle - Alles Heeft Ritme
TTITLE15=Bobbysocks - La Det Swinge
TTITLE16=Olsen Brothers - Fly On The Wings Of Love
TTITLE17=Hadise - Düm Tek Tek
TTITLE18=Emmelie De Forest - Only Teardrops
TTITLE19=Brainstorm - My Star
TTITLE20=Toto Cutugno - Insieme 1992
TTITLE21=Johnny Logan - What's Another Year
EXTD=
EXTT0=
EXTT1=
EXTT2=
EXTT3=
EXTT4=
EXTT5=
EXTT6=
EXTT7=
EXTT8=
EXTT9=
EXTT10=
EXTT11=
EXTT12=
EXTT13=
EXTT14=
EXTT15=
EXTT16=
EXTT17=
EXTT18=
EXTT19=
EXTT20=
EXTT21=
PLAYORDER=
